<svg width="11" height="20" viewBox="0 0 11 20" fill="none" xmlns="http://www.w3.org/2000/svg">
<path d="M3.20491 11.2398C3.12955 11.2398 1.54867 11.2403 0.819549 11.2396C0.444189 11.2394 0.310269 11.1045 0.310269 10.7267C0.309789 9.75639 0.309549 8.78607 0.310269 7.81575C0.310509 7.44279 0.452109 7.30047 0.822669 7.30023C1.55179 7.29975 3.12403 7.29999 3.20491 7.29999C3.20491 7.23351 3.20467 5.83263 3.20491 5.18751C3.20539 4.23375 3.37555 3.32079 3.86011 2.48487C4.35619 1.62927 5.07811 1.04319 6.00331 0.704309C6.59587 0.487109 7.21099 0.400469 7.83979 0.399989C8.62651 0.399509 9.41323 0.400229 10.2002 0.401669C10.5383 0.402149 10.6883 0.551669 10.6891 0.892229C10.6905 1.80495 10.6905 2.71767 10.6891 3.63015C10.6886 3.97431 10.5448 4.11255 10.199 4.11639C9.55411 4.12335 8.90875 4.11903 8.26459 4.14495C7.61395 4.14495 7.27171 4.46271 7.27171 5.13615C7.25611 5.84847 7.26523 6.56151 7.26523 7.29975C7.32619 7.29975 9.17779 7.29951 10.0432 7.29975C10.4363 7.29975 10.5707 7.43487 10.5707 7.83015C10.5707 8.79519 10.5705 9.76047 10.5698 10.7255C10.5695 11.115 10.4433 11.2394 10.0478 11.2396C9.18235 11.2401 7.33795 11.2398 7.25731 11.2398V19.0506C7.25731 19.467 7.12627 19.5998 6.71539 19.5998C5.71363 19.5998 4.71163 19.6 3.70987 19.5998C3.34675 19.5998 3.20515 19.4586 3.20515 19.0955C3.20491 16.5518 3.20491 11.3291 3.20491 11.2398Z" fill="#3D6AD6"/>
</svg>
