<svg width="16" height="17" viewBox="0 0 16 17" fill="none" xmlns="http://www.w3.org/2000/svg">
<g clip-path="url(#clip0_1_1408)">
<path d="M12.1733 2.5H3.82667C3.3422 2.5 2.87758 2.69245 2.53502 3.03502C2.19245 3.37758 2 3.8422 2 4.32667V12.6733C2 13.1578 2.19245 13.6224 2.53502 13.965C2.87758 14.3075 3.3422 14.5 3.82667 14.5H12.1733C12.6578 14.5 13.1224 14.3075 13.465 13.965C13.8075 13.6224 14 13.1578 14 12.6733V4.32667C14 3.8422 13.8075 3.37758 13.465 3.03502C13.1224 2.69245 12.6578 2.5 12.1733 2.5ZM4.66667 7.83333H3.33333V6.5H4.66667V7.83333ZM3.33333 9.16667H4.66667V10.5H3.33333V9.16667ZM12.6667 7.83333H11.3333V6.5H12.6667V7.83333ZM11.3333 9.16667H12.6667V10.5H11.3333V9.16667ZM12.6667 4.32667V5.16667H11.3333V3.83333H12.1733C12.2381 3.83333 12.3023 3.84609 12.3621 3.87089C12.422 3.89568 12.4764 3.93202 12.5222 3.97783C12.568 4.02364 12.6043 4.07802 12.6291 4.13788C12.6539 4.19773 12.6667 4.26188 12.6667 4.32667ZM3.82667 3.83333H4.66667V5.16667H3.33333V4.32667C3.33333 4.26188 3.34609 4.19773 3.37089 4.13788C3.39568 4.07802 3.43202 4.02364 3.47783 3.97783C3.52364 3.93202 3.57802 3.89568 3.63788 3.87089C3.69773 3.84609 3.76188 3.83333 3.82667 3.83333ZM3.33333 12.6733V11.8333H4.66667V13.1667H3.82667C3.76188 13.1667 3.69773 13.1539 3.63788 13.1291C3.57802 13.1043 3.52364 13.068 3.47783 13.0222C3.43202 12.9764 3.39568 12.922 3.37089 12.8621C3.34609 12.8023 3.33333 12.7381 3.33333 12.6733ZM12.6667 12.6733C12.6667 12.8042 12.6147 12.9297 12.5222 13.0222C12.4297 13.1147 12.3042 13.1667 12.1733 13.1667H11.3333V11.8333H12.6667V12.6733Z" fill="#78828A"/>
</g>
<defs>
<clipPath id="clip0_1_1408">
<rect width="16" height="16" fill="white" transform="translate(0 0.5)"/>
</clipPath>
</defs>
</svg>
