<svg width="30" height="31" viewBox="0 0 30 31" fill="none" xmlns="http://www.w3.org/2000/svg">
<g filter="url(#filter0_d_2215_90)">
<path d="M15 15.75C12.93 15.75 11.25 14.07 11.25 12C11.25 9.93 12.93 8.25 15 8.25C17.07 8.25 18.75 9.93 18.75 12C18.75 14.07 17.07 15.75 15 15.75ZM15 9.75C13.76 9.75 12.75 10.76 12.75 12C12.75 13.24 13.76 14.25 15 14.25C16.24 14.25 17.25 13.24 17.25 12C17.25 10.76 16.24 9.75 15 9.75Z" fill="#78828A"/>
<path d="M18.21 22.19C18 22.19 17.79 22.16 17.58 22.11C16.96 21.94 16.44 21.55 16.11 21L15.99 20.8C15.4 19.78 14.59 19.78 14 20.8L13.89 20.99C13.56 21.55 13.04 21.95 12.42 22.11C11.79 22.28 11.14 22.19 10.59 21.86L8.87 20.87C8.26 20.52 7.82 19.95 7.63 19.26C7.45 18.57 7.54 17.86 7.89 17.25C8.18 16.74 8.26 16.28 8.09 15.99C7.92 15.7 7.49 15.53 6.9 15.53C5.44 15.53 4.25 14.34 4.25 12.88V11.12C4.25 9.65998 5.44 8.46998 6.9 8.46998C7.49 8.46998 7.92 8.29998 8.09 8.00998C8.26 7.71998 8.19 7.25998 7.89 6.74998C7.54 6.13998 7.45 5.41998 7.63 4.73998C7.81 4.04998 8.25 3.47998 8.87 3.12998L10.6 2.13998C11.73 1.46998 13.22 1.85998 13.9 3.00998L14.02 3.20998C14.61 4.22998 15.42 4.22998 16.01 3.20998L16.12 3.01998C16.8 1.85998 18.29 1.46998 19.43 2.14998L21.15 3.13998C21.76 3.48998 22.2 4.05998 22.39 4.74998C22.57 5.43998 22.48 6.14998 22.13 6.75998C21.84 7.26998 21.76 7.72998 21.93 8.01998C22.1 8.30998 22.53 8.47998 23.12 8.47998C24.58 8.47998 25.77 9.66998 25.77 11.13V12.89C25.77 14.35 24.58 15.54 23.12 15.54C22.53 15.54 22.1 15.71 21.93 16C21.76 16.29 21.83 16.75 22.13 17.26C22.48 17.87 22.58 18.59 22.39 19.27C22.21 19.96 21.77 20.53 21.15 20.88L19.42 21.87C19.04 22.08 18.63 22.19 18.21 22.19ZM15 18.49C15.89 18.49 16.72 19.05 17.29 20.04L17.4 20.23C17.52 20.44 17.72 20.59 17.96 20.65C18.2 20.71 18.44 20.68 18.64 20.56L20.37 19.56C20.63 19.41 20.83 19.16 20.91 18.86C20.99 18.56 20.95 18.25 20.8 17.99C20.23 17.01 20.16 16 20.6 15.23C21.04 14.46 21.95 14.02 23.09 14.02C23.73 14.02 24.24 13.51 24.24 12.87V11.11C24.24 10.48 23.73 9.95998 23.09 9.95998C21.95 9.95998 21.04 9.51998 20.6 8.74998C20.16 7.97998 20.23 6.96998 20.8 5.98998C20.95 5.72998 20.99 5.41998 20.91 5.11998C20.83 4.81998 20.64 4.57998 20.38 4.41998L18.65 3.42998C18.22 3.16998 17.65 3.31998 17.39 3.75998L17.28 3.94998C16.71 4.93998 15.88 5.49998 14.99 5.49998C14.1 5.49998 13.27 4.93998 12.7 3.94998L12.59 3.74998C12.34 3.32998 11.78 3.17998 11.35 3.42998L9.62 4.42998C9.36 4.57998 9.16 4.82998 9.08 5.12998C9 5.42998 9.04 5.73998 9.19 5.99998C9.76 6.97998 9.83 7.98998 9.39 8.75998C8.95 9.52998 8.04 9.96998 6.9 9.96998C6.26 9.96998 5.75 10.48 5.75 11.12V12.88C5.75 13.51 6.26 14.03 6.9 14.03C8.04 14.03 8.95 14.47 9.39 15.24C9.83 16.01 9.76 17.02 9.19 18C9.04 18.26 9 18.57 9.08 18.87C9.16 19.17 9.35 19.41 9.61 19.57L11.34 20.56C11.55 20.69 11.8 20.72 12.03 20.66C12.27 20.6 12.47 20.44 12.6 20.23L12.71 20.04C13.28 19.06 14.11 18.49 15 18.49Z" fill="#78828A"/>
</g>
<defs>
<filter id="filter0_d_2215_90" x="0.25" y="1.81219" width="29.52" height="28.3818" filterUnits="userSpaceOnUse" color-interpolation-filters="sRGB">
<feFlood flood-opacity="0" result="BackgroundImageFix"/>
<feColorMatrix in="SourceAlpha" type="matrix" values="0 0 0 0 0 0 0 0 0 0 0 0 0 0 0 0 0 0 127 0" result="hardAlpha"/>
<feOffset dy="4"/>
<feGaussianBlur stdDeviation="2"/>
<feComposite in2="hardAlpha" operator="out"/>
<feColorMatrix type="matrix" values="0 0 0 0 0 0 0 0 0 0 0 0 0 0 0 0 0 0 0.25 0"/>
<feBlend mode="normal" in2="BackgroundImageFix" result="effect1_dropShadow_2215_90"/>
<feBlend mode="normal" in="SourceGraphic" in2="effect1_dropShadow_2215_90" result="shape"/>
</filter>
</defs>
</svg>
